PathFileType	4	(X/Y/Z)	C:\Users\Caesar\Desktop\毕业设计\1-评估老年人缺少的力\Data\s2\T_01_fixed.trc	Maker trajectories (.TRC) by Lee-Son ToolBox																																																																											
DataRate	CameraRate	NumFrames	NumMarkers	Units	OrigDataRate	OrigDataStartFrame	OrigNumFrames																																																																								
100	100	17	26	mm	100	751	1000																																																																								
Frame#	Time	HEAD			C7			T10			STERN			LSHO			LELB			RSHO			RELB			LASI			RASI			LPSI			RPSI			LHIP			LTHI			LKNE			LTIB			LANK			LHEE			LTOE			RHIP			RTHI			RKNE			RTIB			RANK			RHEE			RTOE		
		X1	Y1	Z1	X2	Y2	Z2	X3	Y3	Z3	X4	Y4	Z4	X5	Y5	Z5	X6	Y6	Z6	X7	Y7	Z7	X8	Y8	Z8	X9	Y9	Z9	X10	Y10	Z10	X11	Y11	Z11	X12	Y12	Z12	X13	Y13	Z13	X14	Y14	Z14	X15	Y15	Z15	X16	Y16	Z16	X17	Y17	Z17	X18	Y18	Z18	X19	Y19	Z19	X20	Y20	Z20	X21	Y21	Z21	X22	Y22	Z22	X23	Y23	Z23	X24	Y24	Z24	X25	Y25	Z25	X26	Y26	Z26
																																																																															
751	7.5	1056.55	1651.56	1592.44	850.861	1499.05	1576.08	770.259	1332.64	1576.27	1005.68	1351.54	1581.57	901.853	1482.33	1434.65	963.561	1158.58	1286.54	896.688	1465.82	1752.99	955.185	1107.92	1802.72	936.358	1041.43	1443.37	936.84	1037.87	1695.62	769.343	1086.68	1524.28	777.67	1076.25	1639.21	844.371	958.975	1401	852.113	700.911	1438.09	739.761	580.374	1440.13	626.379	423.3	1455.42	499.018	314.23	1475.77	442.554	306.512	1490.52	633.163	219.416	1522.9	912.346	967.903	1738.2	1010.71	845.158	1712.25	1045.76	632.771	1679.19	1084.78	536.309	1679.55	1109.48	258.576	1645.54	1070.27	226.335	1626.76	1293.61	258.32	1608.15
752	7.51	1057.07	1651.81	1592.64	851.111	1499.37	1576.67	770.881	1332.63	1577.15	1006.28	1352.28	1582.41	901.8	1482.43	1435.08	963.063	1158.14	1287.94	897.11	1466.43	1753.46	955.164	1108.34	1802.7	938.026	1041.37	1444.98	938.422	1039.11	1696.77	770.927	1086.41	1524.64	779.035	1076.49	1639.72	847.239	957.757	1402.09	861.156	699.289	1438.47	750.347	578.5	1439.85	630.079	427.658	1453.72	497.831	324.514	1473.67	441.458	321.521	1488.43	620.879	219.354	1522.89	914.485	969.428	1739.15	1013.49	847.277	1711.88	1048.87	634.251	1678.86	1085.26	536.292	1678.93	1097.11	258.157	1645.59	1056.32	227.068	1627.08	1282.08	250.269	1607.69
753	7.52	1057.59	1652.55	1592.74	851.335	1500.29	1577.18	771.407	1333.32	1578.1	1006.78	1353.49	1583.09	901.726	1483.08	1435.48	962.625	1158.41	1289.33	897.728	1467.72	1753.89	955.095	1109.45	1802.84	939.295	1041.93	1446.51	939.923	1040.89	1697.85	772.185	1086.69	1525.19	780.257	1077.26	1640.36	849.806	957.139	1403.28	870.969	698.225	1438.75	762.415	576.901	1439.42	635.773	432.38	1452	499.032	335.438	1471.57	442.947	337.45	1486.28	610.088	219.593	1522.75	916.331	971.311	1740.07	1015.63	849.379	1711.63	1050.88	635.695	1678.67	1084.62	536.348	1678.5	1084.23	257.974	1645.74	1042.07	227.689	1627.56	1269.74	243.666	1607.43
754	7.53	1058.08	1653.73	1592.74	851.497	1501.75	1577.61	771.815	1334.68	1579.13	1007.16	1355.15	1583.6	901.561	1484.26	1435.84	962.256	1159.39	1290.67	898.534	1469.66	1754.24	954.986	1111.24	1803.17	940.169	1043.09	1447.91	941.324	1043.13	1698.85	773.111	1087.51	1525.95	781.336	1078.51	1641.16	852.021	957.141	1404.52	881.324	697.817	1438.89	775.731	575.7	1438.8	643.381	437.348	1450.29	502.609	346.713	1469.48	446.994	353.801	1484.1	601.255	220.205	1522.44	917.86	973.456	1740.97	1017.03	851.267	1711.57	1051.5	636.933	1678.62	1082.65	536.372	1678.22	1071	257.98	1645.9	1027.73	228.189	1628.09	1256.8	238.55	1607.29
755	7.54	1058.55	1655.29	1592.6	851.568	1503.72	1577.96	772.088	1336.62	1580.23	1007.39	1357.23	1583.89	901.236	1485.91	1436.15	961.957	1161.06	1291.92	899.517	1472.18	1754.49	954.85	1113.67	1803.71	940.667	1044.78	1449.14	942.598	1045.75	1699.76	773.714	1088.85	1526.91	782.271	1080.22	1642.12	853.843	957.77	1405.81	891.981	698.153	1438.84	790.016	575.027	1438	652.759	442.443	1448.66	508.467	358.002	1467.45	453.462	370	1481.95	594.866	221.25	1521.9	919.06	975.793	1741.83	1017.62	852.797	1711.76	1050.51	637.859	1678.69	1079.17	536.294	1678.1	1057.54	258.122	1646.01	1013.39	228.573	1628.59	1243.42	234.828	1607.21
756	7.55	1058.98	1657.22	1592.33	851.534	1506.13	1578.23	772.221	1339.09	1581.44	1007.48	1359.7	1583.97	900.696	1488.01	1436.39	961.719	1163.37	1293.06	900.659	1475.22	1754.63	954.701	1116.69	1804.49	940.815	1046.97	1450.19	943.712	1048.69	1700.6	774.016	1090.69	1528.06	783.057	1082.39	1643.22	855.247	959.026	1407.1	902.714	699.314	1438.57	804.976	575.009	1437.05	663.712	447.555	1447.13	516.442	368.942	1465.51	462.121	385.437	1479.88	591.392	222.763	1521.1	919.922	978.283	1742.65	1017.35	853.891	1712.22	1047.82	638.436	1678.88	1074.11	536.089	1678.14	1043.93	258.35	1646.06	999.123	228.854	1629.04	1229.74	232.316	1607.16
757	7.56	1059.36	1659.47	1591.92	851.397	1508.93	1578.45	772.214	1342	1582.76	1007.43	1362.53	1583.82	899.905	1490.48	1436.57	961.524	1166.26	1294.1	901.94	1478.71	1754.65	954.554	1120.23	1805.51	940.653	1049.59	1451.05	944.63	1051.88	1701.36	774.046	1093.01	1529.37	783.691	1084.99	1644.45	856.227	960.899	1408.38	913.332	701.36	1438.09	820.318	575.761	1435.98	676.013	452.591	1445.74	526.32	379.166	1463.68	472.679	399.526	1477.95	591.249	224.737	1520.02	920.436	980.903	1743.45	1016.18	854.549	1712.95	1043.42	638.691	1679.16	1067.46	535.77	1678.33	1030.21	258.622	1646.06	984.931	229.053	1629.4	1215.86	230.785	1607.11
758	7.57	1059.67	1662.01	1591.36	851.172	1512.08	1578.62	772.081	1345.3	1584.19	1007.26	1365.69	1583.47	898.856	1493.29	1436.67	961.355	1169.65	1295.06	903.337	1482.56	1754.55	954.43	1124.24	1806.74	940.225	1052.59	1451.73	945.313	1055.27	1702.06	773.842	1095.8	1530.78	784.162	1088.01	1645.76	856.804	963.365	1409.59	923.691	704.33	1437.41	835.776	577.372	1434.85	689.424	457.477	1444.47	537.872	388.331	1462.01	484.82	411.75	1476.2	594.756	227.106	1518.66	920.584	983.641	1744.22	1014.12	854.833	1713.92	1037.39	638.699	1679.55	1059.31	535.379	1678.68	1016.39	258.908	1646.03	970.8	229.194	1629.69	1201.85	229.991	1607.07
759	7.58	1059.94	1664.82	1590.67	850.884	1515.52	1578.76	771.84	1348.9	1585.72	1006.98	1369.14	1582.92	897.568	1496.38	1436.7	961.194	1173.44	1295.98	904.827	1486.71	1754.34	954.349	1128.64	1808.17	939.581	1055.94	1452.25	945.733	1058.8	1702.71	773.441	1099.01	1532.24	784.462	1091.42	1647.12	857.018	966.39	1410.72	933.694	708.231	1436.57	851.123	579.89	1433.71	703.716	462.15	1443.33	550.874	396.14	1460.51	498.244	421.702	1474.67	602.099	229.743	1517.04	920.349	986.483	1744.96	1011.18	854.852	1715.07	1029.9	638.555	1680	1049.82	534.968	1679.19	1002.49	259.188	1646.01	956.701	229.297	1629.93	1187.77	229.71	1607.03
760	7.59	1060.14	1667.86	1589.85	850.562	1519.18	1578.88	771.519	1352.75	1587.32	1006.64	1372.84	1582.22	896.086	1499.67	1436.65	961.032	1177.52	1296.9	906.384	1491.1	1754.03	954.329	1133.37	1809.74	938.773	1059.57	1452.66	945.868	1062.42	1703.31	772.883	1102.6	1533.69	784.58	1095.15	1648.45	856.935	969.921	1411.72	943.287	713.037	1435.6	866.178	583.32	1432.63	718.683	466.554	1442.3	565.131	402.361	1459.19	512.701	429.109	1473.38	613.305	232.465	1515.22	919.712	989.406	1745.66	1007.42	854.729	1716.34	1021.14	638.354	1680.52	1039.18	534.59	1679.83	988.511	259.452	1646.03	942.604	229.383	1630.14	1173.65	229.748	1607.01
761	7.6	1060.3	1671.08	1588.93	850.234	1523.01	1578.98	771.147	1356.79	1588.98	1006.26	1376.71	1581.4	894.47	1503.1	1436.52	960.872	1181.76	1297.88	907.984	1495.64	1753.62	954.385	1138.34	1811.39	937.855	1063.43	1452.98	945.712	1066.08	1703.87	772.202	1106.51	1535.06	784.511	1099.14	1649.72	856.634	973.892	1412.58	952.449	718.69	1434.59	880.807	587.615	1431.66	734.156	470.631	1441.38	580.483	406.834	1458.05	528.01	433.832	1472.32	628.242	235.06	1513.23	918.667	992.374	1746.32	1002.92	854.577	1717.66	1011.33	638.172	1681.08	1027.62	534.285	1680.57	974.466	259.694	1646.09	928.481	229.466	1630.34	1159.49	229.956	1607.01
762	7.61	1060.41	1674.42	1587.93	849.922	1526.93	1579.06	770.752	1360.93	1590.64	1005.88	1380.69	1580.5	892.79	1506.6	1436.33	960.724	1186.05	1298.95	909.604	1500.28	1753.13	954.525	1143.47	1813.06	936.875	1067.47	1453.25	945.268	1069.72	1704.39	771.434	1110.64	1536.31	784.254	1103.28	1650.87	856.201	978.216	1413.28	961.176	725.098	1433.57	894.92	592.679	1430.82	750.002	474.314	1440.57	596.814	409.478	1457.08	544.063	435.858	1471.47	646.641	237.311	1511.14	917.224	995.339	1746.93	997.772	854.475	1718.98	1000.69	638.06	1681.66	1015.35	534.078	1681.38	960.359	259.911	1646.2	914.313	229.556	1630.55	1145.3	230.224	1607.05
763	7.62	1060.48	1677.81	1586.9	849.641	1530.86	1579.11	770.361	1365.12	1592.28	1005.51	1384.7	1579.58	891.117	1510.09	1436.09	960.602	1190.27	1300.14	911.222	1504.95	1752.55	954.744	1148.69	1814.69	935.873	1071.6	1453.51	944.552	1073.28	1704.89	770.605	1114.89	1537.39	783.815	1107.47	1651.88	855.722	982.792	1413.8	969.468	732.141	1432.61	908.459	598.371	1430.14	766.127	477.529	1439.88	614.043	410.276	1456.26	560.819	435.275	1470.8	668.134	239.034	1509	915.406	998.247	1747.48	992.088	854.459	1720.26	989.401	638.039	1682.23	1002.55	533.975	1682.22	946.197	260.103	1646.35	900.089	229.656	1630.76	1131.07	230.481	1607.13
764	7.63	1060.51	1681.17	1585.85	849.401	1534.72	1579.13	769.996	1369.26	1593.85	1005.19	1388.65	1578.68	889.514	1513.48	1435.81	960.521	1194.31	1301.44	912.819	1509.57	1751.9	955.031	1153.89	1816.26	934.88	1075.74	1453.79	943.587	1076.69	1705.39	769.74	1119.18	1538.29	783.204	1111.61	1652.7	855.268	987.504	1414.15	977.321	739.675	1431.76	921.389	604.52	1429.63	782.468	480.196	1439.33	632.121	409.275	1455.59	578.284	432.25	1470.25	692.298	240.097	1506.87	913.255	1001.04	1747.97	985.977	854.527	1721.48	977.615	638.107	1682.79	989.37	533.969	1683.07	931.99	260.27	1646.51	885.806	229.766	1630.97	1116.8	230.691	1607.25
765	7.64	1060.52	1684.41	1584.84	849.203	1538.42	1579.11	769.668	1373.28	1595.33	1004.92	1392.45	1577.83	888.034	1516.7	1435.51	960.493	1198.08	1302.84	914.381	1514.07	1751.17	955.368	1159	1817.72	933.917	1079.79	1454.12	942.403	1079.9	1705.9	768.856	1123.37	1538.99	782.437	1115.59	1653.35	854.896	992.229	1414.34	984.722	747.541	1431.07	933.688	610.927	1429.29	798.981	482.242	1438.94	651.024	406.566	1455.02	596.504	426.998	1469.79	718.704	240.441	1504.77	910.822	1003.66	1748.39	979.538	854.646	1722.61	965.457	638.244	1683.32	975.911	534.04	1683.92	917.744	260.412	1646.66	871.465	229.885	1631.17	1102.46	230.838	1607.42
766	7.65	1060.49	1687.45	1583.89	849.047	1541.87	1579.04	769.384	1377.1	1596.71	1004.71	1396.01	1577.06	886.716	1519.66	1435.19	960.518	1201.49	1304.31	915.893	1518.35	1750.39	955.732	1163.9	1819.07	932.993	1083.67	1454.53	941.035	1082.83	1706.46	767.967	1127.37	1539.49	781.533	1119.31	1653.8	854.639	996.838	1414.39	991.649	755.567	1430.58	945.338	617.388	1429.12	815.639	483.605	1438.71	670.746	402.279	1454.56	615.542	419.764	1469.38	746.946	240.083	1502.75	908.166	1006.05	1748.75	972.86	854.765	1723.65	953.02	638.423	1683.84	962.247	534.165	1684.75	903.463	260.531	1646.78	857.075	230.006	1631.35	1088.06	230.926	1607.63
767	7.66	1060.44	1690.21	1583.04	848.927	1545.01	1578.93	769.14	1380.64	1597.97	1004.56	1399.24	1576.41	885.583	1522.3	1434.88	960.592	1204.48	1305.79	917.346	1522.34	1749.57	956.107	1168.52	1820.33	932.107	1087.27	1455.01	939.518	1085.43	1707.07	767.08	1131.08	1539.81	780.514	1122.71	1654.09	854.508	1001.21	1414.31	998.081	763.579	1430.32	956.319	623.699	1429.11	832.424	484.248	1438.66	691.294	396.573	1454.16	635.472	410.808	1469	776.667	239.107	1500.83	905.341	1008.17	1749.06	966.012	854.832	1724.61	940.38	638.615	1684.35	948.432	534.317	1685.57	889.149	260.628	1646.86	842.646	230.125	1631.49	1073.58	230.968	1607.9
